<svg width="34" height="30" viewBox="0 0 34 30" fill="none" xmlns="http://www.w3.org/2000/svg">
<path d="M3.03 30C2.16625 30 1.44562 29.7112 0.868125 29.1337C0.290625 28.5562 0.00125 27.835 0 26.97V8.655C0 7.79125 0.289375 7.07063 0.868125 6.49313C1.44687 5.91563 2.16687 5.62625 3.02812 5.625H11.25V3.02813C11.25 2.16563 11.5394 1.445 12.1181 0.866254C12.6969 0.287504 13.4175 -0.00124596 14.28 4.04095e-06H19.4719C20.3344 4.04095e-06 21.055 0.288754 21.6337 0.866254C22.2125 1.44375 22.5012 2.16438 22.5 3.02813V5.625H30.7219C31.5844 5.625 32.3044 5.91438 32.8819 6.49313C33.4594 7.07188 33.7487 7.7925 33.75 8.655V26.9719C33.75 27.8344 33.4606 28.555 32.8819 29.1337C32.3031 29.7125 31.5831 30.0012 30.7219 30H3.03ZM3.03 28.125H30.7219C31.0094 28.125 31.2737 28.005 31.515 27.765C31.7562 27.525 31.8762 27.26 31.875 26.97V8.655C31.875 8.36625 31.755 8.10125 31.515 7.86C31.275 7.61875 31.0106 7.49875 30.7219 7.5H3.02812C2.74062 7.5 2.47625 7.62 2.235 7.86C1.99375 8.1 1.87375 8.365 1.875 8.655V26.9719C1.875 27.2594 1.995 27.5237 2.235 27.765C2.475 28.0062 2.73937 28.1262 3.02812 28.125M13.125 5.625H20.625V3.02813C20.625 2.74063 20.505 2.47625 20.265 2.235C20.025 1.99375 19.7606 1.87375 19.4719 1.875H14.2781C13.9906 1.875 13.7262 1.995 13.485 2.235C13.2437 2.475 13.1237 2.73938 13.125 3.02813V5.625Z" fill="white"/>
</svg>
