<svg width="61" height="24" viewBox="0 0 61 24" fill="none" xmlns="http://www.w3.org/2000/svg">
<mask id="path-1-inside-1_0_2296" fill="white">
<path d="M0.102539 5C0.102539 2.23858 2.34112 0 5.10254 0H55.1025C57.864 0 60.1025 2.23858 60.1025 5V19C60.1025 21.7614 57.864 24 55.1025 24H5.10254C2.34111 24 0.102539 21.7614 0.102539 19V5Z"/>
</mask>
<path d="M0.102539 5C0.102539 2.23858 2.34112 0 5.10254 0H55.1025C57.864 0 60.1025 2.23858 60.1025 5V19C60.1025 21.7614 57.864 24 55.1025 24H5.10254C2.34111 24 0.102539 21.7614 0.102539 19V5Z" fill="white"/>
<path d="M0.102539 0H60.1025H0.102539ZM60.1025 19C60.1025 22.3137 57.4162 25 54.1025 25H6.10254C2.78883 25 0.102539 22.3137 0.102539 19C0.102539 21.2091 2.34112 23 5.10254 23H55.1025C57.864 23 60.1025 21.2091 60.1025 19ZM0.102539 24V0V24ZM60.1025 0V24V0Z" fill="#E6E6E6" mask="url(#path-1-inside-1_0_2296)"/>
<g opacity="0.9">
<path d="M8.10254 13.115C7.89587 13.115 7.71587 13.0383 7.56254 12.885C7.40921 12.7317 7.33254 12.5517 7.33254 12.345C7.33254 12.1383 7.40921 11.9587 7.56254 11.806C7.71587 11.6533 7.89587 11.5767 8.10254 11.576C8.30921 11.5753 8.48921 11.652 8.64254 11.806C8.79587 11.96 8.87254 12.14 8.87254 12.346C8.87254 12.552 8.79587 12.7317 8.64254 12.885C8.48921 13.0383 8.30921 13.115 8.10254 13.115ZM12.1025 13.115C11.8959 13.115 11.7159 13.0383 11.5625 12.885C11.4092 12.7317 11.3325 12.5517 11.3325 12.345C11.3325 12.1383 11.4092 11.9587 11.5625 11.806C11.7159 11.6533 11.8959 11.5767 12.1025 11.576C12.3092 11.5753 12.4892 11.652 12.6425 11.806C12.7959 11.96 12.8725 12.14 12.8725 12.346C12.8725 12.552 12.7959 12.7317 12.6425 12.885C12.4892 13.0383 12.3092 13.115 12.1025 13.115ZM16.1025 13.115C15.8959 13.115 15.7159 13.0383 15.5625 12.885C15.4092 12.7317 15.3325 12.5517 15.3325 12.345C15.3325 12.1383 15.4092 11.9587 15.5625 11.806C15.7159 11.6533 15.8959 11.5767 16.1025 11.576C16.3092 11.5753 16.4892 11.652 16.6425 11.806C16.7959 11.96 16.8725 12.14 16.8725 12.346C16.8725 12.552 16.7959 12.7317 16.6425 12.885C16.4892 13.0383 16.3092 13.115 16.1025 13.115ZM5.71854 20.23C5.25787 20.23 4.87354 20.076 4.56554 19.768C4.25754 19.46 4.10321 19.0757 4.10254 18.615V5.845C4.10254 5.385 4.25687 5.001 4.56554 4.693C4.87421 4.385 5.25854 4.23067 5.71854 4.23H7.48754V2H8.56454V4.23H15.7185V2H16.7185V4.23H18.4875C18.9475 4.23 19.3319 4.38433 19.6405 4.693C19.9492 5.00167 20.1032 5.386 20.1025 5.846V18.615C20.1025 19.075 19.9485 19.4593 19.6405 19.768C19.3325 20.0767 18.9479 20.2307 18.4865 20.23H5.71854ZM5.71854 19.23H18.4875C18.6409 19.23 18.7819 19.166 18.9105 19.038C19.0392 18.91 19.1032 18.7687 19.1025 18.614V9.846H5.10254V18.615C5.10254 18.7683 5.16654 18.9093 5.29454 19.038C5.42254 19.1667 5.56354 19.2307 5.71754 19.23" fill="#979797"/>
</g>
<path d="M26.7185 16.5V10.9H28.1585C28.8092 10.9 29.3452 11.0147 29.7665 11.244C30.1932 11.468 30.5079 11.7907 30.7105 12.212C30.9185 12.628 31.0225 13.1293 31.0225 13.716C31.0225 14.292 30.9185 14.788 30.7105 15.204C30.5079 15.62 30.1932 15.94 29.7665 16.164C29.3452 16.388 28.8092 16.5 28.1585 16.5H26.7185ZM27.3905 15.94H28.1425C28.6812 15.94 29.1105 15.852 29.4305 15.676C29.7505 15.4947 29.9799 15.2387 30.1185 14.908C30.2572 14.572 30.3265 14.1747 30.3265 13.716C30.3265 13.2467 30.2572 12.844 30.1185 12.508C29.9799 12.172 29.7505 11.9133 29.4305 11.732C29.1105 11.5507 28.6812 11.46 28.1425 11.46H27.3905V15.94ZM33.575 16.596C33.2657 16.596 32.9964 16.5373 32.767 16.42C32.5377 16.3027 32.359 16.124 32.231 15.884C32.103 15.6387 32.039 15.3347 32.039 14.972V12.292H32.711V14.9C32.711 15.2733 32.8017 15.5533 32.983 15.74C33.1697 15.9267 33.4177 16.02 33.727 16.02C33.9404 16.02 34.1324 15.972 34.303 15.876C34.4737 15.7747 34.6097 15.628 34.711 15.436C34.8177 15.244 34.871 15.0093 34.871 14.732V12.292H35.543V16.5H34.935L34.895 15.828C34.783 16.0733 34.6097 16.2627 34.375 16.396C34.1457 16.5293 33.879 16.596 33.575 16.596ZM33.175 11.764C33.063 11.764 32.967 11.7267 32.887 11.652C32.8124 11.572 32.775 11.476 32.775 11.364C32.775 11.2573 32.8124 11.164 32.887 11.084C32.967 11.004 33.063 10.964 33.175 10.964C33.2817 10.964 33.375 11.004 33.455 11.084C33.535 11.164 33.575 11.2573 33.575 11.364C33.575 11.476 33.535 11.572 33.455 11.652C33.375 11.7267 33.2817 11.764 33.175 11.764ZM34.455 11.764C34.343 11.764 34.247 11.7267 34.167 11.652C34.0924 11.572 34.055 11.476 34.055 11.364C34.055 11.2573 34.0924 11.164 34.167 11.084C34.247 11.004 34.343 10.964 34.455 10.964C34.5617 10.964 34.6524 11.004 34.727 11.084C34.807 11.164 34.847 11.2573 34.847 11.364C34.847 11.476 34.807 11.572 34.727 11.652C34.6524 11.7267 34.5617 11.764 34.455 11.764ZM36.7602 16.5V12.292H37.3682L37.4002 12.956C37.5229 12.716 37.6989 12.5293 37.9282 12.396C38.1629 12.2627 38.4322 12.196 38.7362 12.196C39.0456 12.196 39.3149 12.2547 39.5442 12.372C39.7736 12.4893 39.9522 12.668 40.0802 12.908C40.2082 13.148 40.2722 13.452 40.2722 13.82V16.5H39.6002V13.892C39.6002 13.5187 39.5069 13.2387 39.3202 13.052C39.1389 12.8653 38.8936 12.772 38.5842 12.772C38.3762 12.772 38.1842 12.8227 38.0082 12.924C37.8322 13.02 37.6909 13.164 37.5842 13.356C37.4829 13.548 37.4322 13.7827 37.4322 14.06V16.5H36.7602Z" fill="#757575"/>
<path d="M51.6025 16L48.5715 11.5H54.6336L51.6025 16Z" fill="#979797"/>
</svg>
