<svg width="28" height="25" viewBox="0 0 28 25" fill="none" xmlns="http://www.w3.org/2000/svg">
<g clip-path="url(#clip0_0_2356)">
<path d="M26.4427 21.875C26.5902 21.875 26.7318 21.8201 26.8362 21.7225C26.9404 21.6248 26.9991 21.4923 26.9991 21.3542V11.9792C26.9852 11.6383 26.9005 11.3032 26.7498 10.9927L25.5791 8.79896C25.497 8.66448 25.3803 8.55141 25.2396 8.47006C25.0988 8.38872 24.9385 8.34171 24.7733 8.33333H19.2089V6.25L17.7888 3.59063C17.7068 3.45615 17.59 3.34307 17.4494 3.26173C17.3086 3.18039 17.1482 3.13337 16.9831 3.125H11.4186C11.2534 3.13337 11.0931 3.18039 10.9524 3.26173C10.8116 3.34307 10.6949 3.45615 10.6129 3.59063L9.19283 6.25V8.33333H3.62837C3.46318 8.34171 3.30288 8.38872 3.16213 8.47006C3.02137 8.55141 2.90465 8.66448 2.82264 8.79896L1.65076 10.9917C1.50028 11.3026 1.41598 11.638 1.40259 11.9792V21.3542C1.40259 21.4923 1.46121 21.6248 1.56557 21.7225C1.66992 21.8201 1.81146 21.875 1.95903 21.875H26.4427Z" fill="#FFBC44"/>
<path d="M26.9223 11.4583C26.8833 11.2975 26.8258 11.1411 26.7509 10.9917L25.5791 8.79897C25.497 8.66449 25.3803 8.55142 25.2396 8.47007C25.0988 8.38873 24.9385 8.34172 24.7733 8.33334H19.2089V11.4583H26.9223Z" fill="#FFE4B4"/>
<path d="M17.7888 3.59063C17.7068 3.45615 17.59 3.34307 17.4494 3.26173C17.3086 3.18039 17.1482 3.13337 16.9831 3.125H11.4186C11.2534 3.13337 11.0931 3.18039 10.9523 3.26173C10.8116 3.34307 10.6949 3.45615 10.6129 3.59063L9.19281 6.25H19.2088L17.7888 3.59063Z" fill="#FFE4B4"/>
<path d="M9.19283 8.33334H3.62837C3.46318 8.34172 3.30288 8.38873 3.16213 8.47007C3.02137 8.55142 2.90465 8.66449 2.82264 8.79897L1.65076 10.9917C1.50028 11.3026 1.41598 11.638 1.40259 11.9792H9.19283V8.33334Z" fill="#FFE4B4"/>
<path d="M19.2088 6.25H9.19281V21.875H19.2088V6.25Z" stroke="#191919" stroke-linecap="round" stroke-linejoin="round"/>
<path d="M19.2089 11.4583V8.33334H24.7733C24.9385 8.34172 25.0988 8.38873 25.2396 8.47007C25.3803 8.55142 25.497 8.66449 25.5791 8.79897L26.7509 10.9917C26.9016 11.3022 26.9863 11.6373 27.0002 11.9781V21.3531C27.0002 21.4913 26.9416 21.6238 26.8373 21.7215C26.7329 21.8191 26.5913 21.874 26.4438 21.874H19.2089V11.4583Z" stroke="#191919" stroke-linecap="round" stroke-linejoin="round"/>
<path d="M9.19283 11.4583V8.33334H3.62837C3.46318 8.34172 3.30288 8.38873 3.16213 8.47007C3.02137 8.55142 2.90465 8.66449 2.82264 8.79897L1.65076 10.9917C1.50028 11.3026 1.41598 11.638 1.40259 11.9792V21.3542C1.40259 21.4923 1.46121 21.6248 1.56557 21.7225C1.66992 21.8201 1.81146 21.875 1.95903 21.875H9.19283V11.4583Z" stroke="#191919" stroke-linecap="round" stroke-linejoin="round"/>
<path d="M9.19281 6.25L10.6129 3.59063C10.6949 3.45615 10.8116 3.34307 10.9523 3.26173C11.0931 3.18039 11.2534 3.13337 11.4186 3.125H16.9831C17.1482 3.13337 17.3086 3.18039 17.4494 3.26173C17.59 3.34307 17.7068 3.45615 17.7888 3.59063L19.2088 6.25H9.19281Z" stroke="#191919" stroke-linecap="round" stroke-linejoin="round"/>
<path d="M19.2089 11.4583H26.9991" stroke="#191919" stroke-linecap="round" stroke-linejoin="round"/>
<path d="M22.0267 15.3552C22.0804 15.1675 22.1893 14.9976 22.3407 14.8648C22.4923 14.732 22.6805 14.6415 22.884 14.6034C23.0877 14.5654 23.2986 14.5816 23.4929 14.6499C23.6872 14.7181 23.8573 14.836 23.9838 14.9901C24.1103 15.1442 24.1884 15.3282 24.2089 15.5216C24.2296 15.715 24.192 15.9099 24.1004 16.0843C24.009 16.2587 23.8671 16.4056 23.691 16.5085C23.5149 16.6115 23.3115 16.6663 23.104 16.6667C23.3112 16.6669 23.5142 16.7212 23.6901 16.8234C23.8662 16.9257 24.0082 17.072 24.1001 17.2457C24.1921 17.4195 24.2305 17.6139 24.2109 17.8069C24.1912 17.9999 24.1145 18.1841 23.9891 18.3384C23.8638 18.4928 23.695 18.6115 23.5016 18.6809C23.3081 18.7503 23.0978 18.7679 22.8943 18.7316C22.6907 18.6951 22.5022 18.6064 22.3496 18.4751C22.1972 18.3439 22.0869 18.1753 22.0311 17.9885" stroke="#191919" stroke-linecap="round" stroke-linejoin="round"/>
<path d="M4.18481 15.625C4.18481 15.3488 4.30207 15.0838 4.51077 14.8884C4.71948 14.6931 5.00255 14.5833 5.29771 14.5833C5.59287 14.5833 5.87593 14.6931 6.08464 14.8884C6.29334 15.0838 6.4106 15.3488 6.4106 15.625C6.41081 15.962 6.28834 16.289 6.06338 16.5521L4.18481 18.75H6.4106" stroke="#191919" stroke-linecap="round" stroke-linejoin="round"/>
<path d="M13.6444 11.4583H14.2009C14.3484 11.4583 14.49 11.5132 14.5944 11.6108C14.6987 11.7086 14.7573 11.8411 14.7573 11.9792V15.625" stroke="#191919" stroke-linecap="round" stroke-linejoin="round"/>
<path d="M13.6422 15.625H15.8679" stroke="#191919" stroke-linecap="round" stroke-linejoin="round"/>
<path d="M1.40259 11.9792H9.19283" stroke="#191919" stroke-linecap="round" stroke-linejoin="round"/>
</g>
<defs>
<clipPath id="clip0_0_2356">
<rect width="26.7094" height="25" fill="white" transform="translate(0.84613)"/>
</clipPath>
</defs>
</svg>
