<svg width="24" height="25" viewBox="0 0 24 25" fill="none" xmlns="http://www.w3.org/2000/svg">
<path d="M16.869 8C17.819 8 18.503 8 19.037 8.043C19.567 8.086 19.901 8.168 20.166 8.304C20.428 8.439 20.661 8.614 20.858 8.82L17.025 12.106C16.605 12.465 16.314 12.715 16.071 12.891C15.833 13.064 15.675 13.141 15.534 13.177C15.2336 13.2527 14.9171 13.2335 14.628 13.122C14.493 13.07 14.346 12.975 14.13 12.774C13.8349 12.4868 13.5504 12.1889 13.277 11.881L11.37 9.799C11.2805 9.70113 11.1558 9.64284 11.0233 9.63693C10.8908 9.63102 10.7614 9.67799 10.6635 9.7675C10.5656 9.85701 10.5073 9.98173 10.5014 10.1142C10.4955 10.2467 10.5425 10.3761 10.632 10.474L12.555 12.572C12.91 12.959 13.197 13.272 13.45 13.507C13.711 13.75 13.967 13.939 14.27 14.056C14.752 14.2412 15.2794 14.2726 15.78 14.146C16.095 14.067 16.371 13.91 16.66 13.7C16.94 13.497 17.261 13.221 17.66 12.879L21.393 9.68C21.463 9.903 21.499 10.18 21.501 10.57C21.504 11.078 21.451 11.727 21.377 12.634L21.18 15.034C21.115 15.823 21.069 16.384 20.996 16.823C20.9621 17.06 20.9017 17.2925 20.816 17.516L18.381 14.675C18.2948 14.5742 18.1721 14.5118 18.0399 14.5015C17.9077 14.4912 17.7768 14.5338 17.676 14.62C17.5752 14.7062 17.5128 14.8289 17.5025 14.9611C17.4922 15.0933 17.5348 15.2242 17.621 15.325L20.203 18.337C20.0103 18.5042 19.7948 18.6433 19.563 18.75C19.318 18.863 19.018 18.93 18.557 18.965C18.091 19 17.499 19 16.673 19H12.575C11.605 19 10.911 19 10.371 18.953C9.836 18.907 9.506 18.819 9.251 18.675C9.20528 18.6485 9.16026 18.6208 9.116 18.592L12.355 15.354C12.4489 15.2602 12.5017 15.133 12.5018 15.0004C12.5019 14.8677 12.4493 14.7404 12.3555 14.6465C12.2617 14.5526 12.1345 14.4998 12.0019 14.4997C11.8692 14.4996 11.7419 14.5522 11.648 14.646L8.406 17.888C8.3031 17.7343 8.21757 17.5696 8.151 17.397C8.047 17.124 8.008 16.785 8.042 16.249C8.076 15.708 8.179 15.02 8.323 14.062L8.771 11.074C8.78443 10.9459 8.74793 10.8176 8.66909 10.7158C8.59025 10.6139 8.47516 10.5464 8.3478 10.5274C8.22044 10.5083 8.09062 10.5391 7.98541 10.6133C7.88019 10.6876 7.80769 10.7996 7.783 10.926L7.331 13.936C7.205 14.773 7.104 15.447 7.058 16.003L7 16H4C3.86739 16 3.74021 16.0527 3.64645 16.1464C3.55268 16.2402 3.5 16.3674 3.5 16.5C3.5 16.6326 3.55268 16.7598 3.64645 16.8536C3.74021 16.9473 3.86739 17 4 17H7C7.016 17 7.03167 16.9993 7.047 16.998C7.06967 17.2647 7.12633 17.5173 7.217 17.756C7.3334 18.0598 7.49159 18.3459 7.687 18.606L7.647 18.646L8.354 19.353L8.397 19.31C8.51167 19.3953 8.63167 19.4733 8.757 19.544C9.192 19.791 9.687 19.898 10.284 19.949C10.872 20 11.61 20 12.55 20H16.692C17.493 20 18.122 20 18.632 19.962C19.15 19.922 19.582 19.842 19.98 19.659C20.6316 19.3616 21.1796 18.8766 21.554 18.266C21.779 17.894 21.9 17.482 21.982 16.986C22.062 16.502 22.112 15.9 22.174 15.138L22.374 12.692C22.446 11.814 22.504 11.122 22.5 10.564C22.497 9.994 22.431 9.515 22.229 9.076C21.8933 8.35971 21.3286 7.77564 20.624 7.416C20.191 7.192 19.706 7.094 19.117 7.046C18.539 7 17.815 7 16.891 7H2C1.86739 7 1.74021 7.05268 1.64645 7.14645C1.55268 7.24021 1.5 7.36739 1.5 7.5C1.5 7.63261 1.55268 7.75979 1.64645 7.85355C1.74021 7.94732 1.86739 8 2 8H16.869Z" fill="#4CD080"/>
<path d="M3 10C2.86739 10 2.74021 10.0527 2.64645 10.1464C2.55268 10.2402 2.5 10.3674 2.5 10.5C2.5 10.6326 2.55268 10.7598 2.64645 10.8536C2.74021 10.9473 2.86739 11 3 11H6C6.13261 11 6.25979 10.9473 6.35355 10.8536C6.44732 10.7598 6.5 10.6326 6.5 10.5C6.5 10.3674 6.44732 10.2402 6.35355 10.1464C6.25979 10.0527 6.13261 10 6 10H3ZM4 13C3.86739 13 3.74021 13.0527 3.64645 13.1464C3.55268 13.2402 3.5 13.3674 3.5 13.5C3.5 13.6326 3.55268 13.7598 3.64645 13.8536C3.74021 13.9473 3.86739 14 4 14H5C5.13261 14 5.25979 13.9473 5.35355 13.8536C5.44732 13.7598 5.5 13.6326 5.5 13.5C5.5 13.3674 5.44732 13.2402 5.35355 13.1464C5.25979 13.0527 5.13261 13 5 13H4Z" fill="#4CD080"/>
</svg>
