<svg width="24" height="24" viewBox="0 0 24 24" fill="none" xmlns="http://www.w3.org/2000/svg">
<path d="M12 16.975C13.6373 15.539 14.88 14.1467 15.728 12.798C16.576 11.4493 17 10.1887 17 9.016C17 7.54133 16.5333 6.33667 15.6 5.402C14.6667 4.46733 13.4667 4 12 4C10.5333 4 9.33334 4.46733 8.40001 5.402C7.46667 6.33667 7.00001 7.54133 7.00001 9.016C7.00001 10.1887 7.42401 11.4493 8.27201 12.798C9.12001 14.1467 10.3627 15.539 12 16.975ZM12 17.795C11.826 17.795 11.657 17.7647 11.493 17.704C11.329 17.644 11.179 17.5537 11.043 17.433C9.38301 15.9557 8.12767 14.5067 7.27701 13.086C6.42567 11.6647 6.00001 10.308 6.00001 9.016C6.00001 7.25267 6.56001 5.80933 7.68001 4.686C8.80134 3.562 10.2413 3 12 3C13.7587 3 15.1987 3.562 16.32 4.686C17.44 5.80867 18 7.252 18 9.016C18 10.308 17.5743 11.6613 16.723 13.076C15.8717 14.4907 14.6163 15.94 12.957 17.424C12.817 17.5507 12.666 17.644 12.504 17.704C12.342 17.764 12.174 17.795 12 17.795ZM12.003 10.615C12.4483 10.615 12.8283 10.4567 13.143 10.14C13.4577 9.82267 13.615 9.44133 13.615 8.996C13.615 8.55067 13.4567 8.17067 13.14 7.856C12.8233 7.54133 12.442 7.384 11.996 7.384C11.55 7.384 11.17 7.54267 10.856 7.86C10.542 8.17733 10.3847 8.55833 10.384 9.003C10.3833 9.44767 10.542 9.82767 10.86 10.143C11.178 10.4583 11.559 10.6157 12.003 10.615ZM6.50001 21C6.35801 21 6.23934 20.952 6.14401 20.856C6.04867 20.76 6.00067 20.641 6.00001 20.499C5.99934 20.357 6.04734 20.2383 6.14401 20.143C6.24067 20.0477 6.35934 20 6.50001 20H17.5C17.642 20 17.7607 20.048 17.856 20.144C17.9513 20.24 17.9993 20.359 18 20.501C18.0007 20.643 17.9527 20.7617 17.856 20.857C17.7593 20.9523 17.6407 21 17.5 21H6.50001Z" fill="#BDBDBD"/>
</svg>
