<svg width="28" height="25" viewBox="0 0 28 19" fill="none" xmlns="http://www.w3.org/2000/svg">
<path d="M16.5455 10.6875C15.4848 10.6875 14.5833 10.3411 13.8409 9.64844C13.0985 8.95573 12.7273 8.11458 12.7273 7.125C12.7273 6.13542 13.0985 5.29427 13.8409 4.60156C14.5833 3.90885 15.4848 3.5625 16.5455 3.5625C17.6061 3.5625 18.5076 3.90885 19.25 4.60156C19.9924 5.29427 20.3636 6.13542 20.3636 7.125C20.3636 8.11458 19.9924 8.95573 19.25 9.64844C18.5076 10.3411 17.6061 10.6875 16.5455 10.6875ZM5.09091 14.25V0H28V14.25H5.09091ZM10.1818 11.875H22.9091C22.9091 11.2219 23.1585 10.663 23.6575 10.1983C24.1564 9.73354 24.7554 9.50079 25.4545 9.5V4.75C24.7545 4.75 24.1555 4.51765 23.6575 4.05294C23.1594 3.58823 22.9099 3.02892 22.9091 2.375H10.1818C10.1818 3.02813 9.93279 3.58744 9.43473 4.05294C8.93667 4.51844 8.33721 4.75079 7.63636 4.75V9.5C8.33636 9.5 8.93582 9.73275 9.43473 10.1983C9.93364 10.6638 10.1827 11.2227 10.1818 11.875ZM0 19V3.5625H2.54545V16.625H24.1818V19H0Z" fill="#4CD080"/>
</svg>
