<svg width="18" height="19" viewBox="0 0 18 19" fill="none" xmlns="http://www.w3.org/2000/svg">
<g clip-path="url(#clip0_0_2245)">
<path d="M13.5 5.65611C13.5 4.45944 13.0259 3.31179 12.182 2.46562C11.3381 1.61945 10.1935 1.14407 9 1.14407C7.80653 1.14407 6.66193 1.61945 5.81802 2.46562C4.97411 3.31179 4.5 4.45944 4.5 5.65611C4.5 9.36282 3.38436 11.2052 2.72426 11.9708C2.59513 12.1206 2.71134 12.4242 2.90909 12.4242H15.0909C15.2887 12.4242 15.4049 12.1206 15.2757 11.9708C14.6156 11.2052 13.5 9.36282 13.5 5.65611Z" stroke="white" stroke-width="1.5" stroke-linecap="round" stroke-linejoin="round"/>
<path d="M11.25 14.6801C11.0213 15.1376 10.6931 15.5173 10.2983 15.7813C9.90339 16.0452 9.4557 16.1842 9 16.1842C8.5443 16.1842 8.09661 16.0452 7.70173 15.7813C7.30685 15.5173 6.97866 15.1376 6.75 14.6801" stroke="white" stroke-width="1.5" stroke-linecap="round" stroke-linejoin="round"/>
</g>
<defs>
<clipPath id="clip0_0_2245">
<rect width="18" height="18.0481" fill="white" transform="translate(0 0.0160522)"/>
</clipPath>
</defs>
</svg>
