<svg width="29" height="29" viewBox="0 0 29 29" fill="none" xmlns="http://www.w3.org/2000/svg">
<path d="M2.91667 12.3553L7 14.0837C7.51667 13.0492 8.07944 12.0481 8.68833 11.0803C9.29722 10.1125 9.96944 9.17143 10.705 8.25699L8.14667 7.76699C7.97555 7.72366 7.81 7.72865 7.65 7.78199C7.49 7.83532 7.34556 7.92588 7.21667 8.05366L2.91667 12.3553ZM8.32 15.1403L13.0367 19.8503C14.3533 19.2559 15.6783 18.5003 17.0117 17.5837C18.345 16.667 19.6272 15.5931 20.8583 14.362C22.6528 12.5675 24.0239 10.6537 24.9717 8.62032C25.9194 6.58699 26.4522 4.23921 26.57 1.57699C23.9078 1.69477 21.5633 2.22754 19.5367 3.17532C17.5122 4.1231 15.6022 5.49421 13.8067 7.28866C12.5767 8.51977 11.5033 9.80699 10.5867 11.1503C9.67 12.4937 8.91444 13.8237 8.32 15.1403ZM16.9533 11.182C16.4644 10.6931 16.22 10.1064 16.22 9.42199C16.22 8.73754 16.4644 8.15032 16.9533 7.66032C17.4422 7.17032 18.0367 6.92588 18.7367 6.92699C19.4367 6.9281 20.0306 7.17254 20.5183 7.66032C21.0061 8.1481 21.2506 8.73532 21.2517 9.42199C21.2528 10.1087 21.0083 10.6953 20.5183 11.182C20.0294 11.6709 19.435 11.9153 18.735 11.9153C18.035 11.9153 17.4417 11.6709 16.955 11.182M15.79 25.2637L20.0917 20.962C20.2194 20.8331 20.3106 20.6887 20.365 20.5287C20.4183 20.3687 20.4239 20.2031 20.3817 20.032L19.89 17.4737C18.9756 18.2092 18.0344 18.8798 17.0667 19.4853C16.0989 20.0909 15.0978 20.652 14.0633 21.1687L15.79 25.2637ZM28.1267 0.0419888C28.3133 3.10421 27.88 5.92088 26.8267 8.49199C25.7744 11.0642 24.1356 13.4631 21.91 15.6887L21.62 15.977L21.3317 16.2653L22.005 19.6853C22.095 20.1342 22.0783 20.5692 21.955 20.9903C21.8306 21.4114 21.6061 21.7842 21.2817 22.1087L15.2117 28.147L12.4483 21.6387L6.50833 15.6987L0 12.9037L6.02833 6.86532C6.35278 6.54088 6.72722 6.31143 7.15167 6.17699C7.57611 6.04255 8.01278 6.02032 8.46167 6.11032L11.945 6.81366C12.0517 6.70699 12.1422 6.61088 12.2167 6.52532C12.2911 6.43977 12.3822 6.34366 12.49 6.23699C14.7167 4.01032 17.1139 2.37477 19.6817 1.33032C22.2494 0.285878 25.0633 -0.143567 28.1267 0.0419888ZM2.79667 20.6053C3.44889 19.9542 4.24111 19.632 5.17333 19.6387C6.10556 19.6453 6.89778 19.9753 7.55 20.6287C8.20222 21.282 8.52667 22.0742 8.52333 23.0053C8.52 23.9387 8.19222 24.7309 7.54 25.382C6.97333 25.9487 6.065 26.4337 4.815 26.837C3.565 27.2403 2.11778 27.5192 0.473334 27.6737C0.627778 26.0292 0.912223 24.582 1.32667 23.332C1.74111 22.082 2.23111 21.1731 2.79667 20.6053ZM3.98667 21.817C3.66556 22.1381 3.36611 22.6614 3.08833 23.387C2.81056 24.1125 2.62722 24.8609 2.53833 25.632C3.30944 25.542 4.05778 25.3542 4.78333 25.0687C5.50778 24.7842 6.03056 24.4814 6.35167 24.1603C6.685 23.827 6.855 23.4298 6.86167 22.9687C6.86722 22.5064 6.70333 22.1087 6.37 21.7753C6.03667 21.442 5.63944 21.2825 5.17833 21.297C4.71722 21.3103 4.32 21.4837 3.98667 21.817Z" fill="white"/>
</svg>
