<svg width="18" height="19" viewBox="0 0 18 19" fill="none" xmlns="http://www.w3.org/2000/svg">
<g clip-path="url(#clip0_0_2255)">
<path d="M9.22115 6.79499C8.7595 6.74927 8.29505 6.84775 7.89138 7.07693C7.48771 7.30611 7.16456 7.65479 6.96616 8.07524C6.76777 8.49568 6.70383 8.96734 6.78311 9.42562C6.86238 9.88391 7.081 10.3064 7.40902 10.6353C7.73704 10.9642 8.15843 11.1834 8.61549 11.2629C9.07256 11.3424 9.54296 11.2783 9.96228 11.0794C10.3816 10.8804 10.7294 10.5564 10.9579 10.1517C11.1865 9.74692 11.2847 9.28123 11.2391 8.81835C11.1871 8.29946 10.9578 7.81454 10.5901 7.44578C10.2223 7.07702 9.73866 6.8471 9.22115 6.79499V6.79499ZM14.6387 9.04007C14.6373 9.2853 14.6193 9.53014 14.5849 9.77293L16.1744 11.0229C16.2436 11.0804 16.2902 11.1607 16.306 11.2494C16.3217 11.3382 16.3056 11.4296 16.2605 11.5076L14.7569 14.1161C14.7112 14.1933 14.6398 14.2519 14.5553 14.2815C14.4708 14.3111 14.3786 14.3098 14.2949 14.2779L12.7164 13.6406C12.6293 13.6058 12.535 13.5933 12.442 13.604C12.3489 13.6148 12.2599 13.6486 12.1831 13.7023C11.9422 13.8686 11.689 14.0164 11.4258 14.1443C11.343 14.1846 11.2715 14.2448 11.2174 14.3194C11.1633 14.394 11.1284 14.4809 11.1157 14.5722L10.8791 16.2604C10.8636 16.3495 10.8176 16.4305 10.7492 16.4895C10.6807 16.5484 10.5939 16.5817 10.5036 16.5836H7.49638C7.40763 16.5821 7.32204 16.5503 7.25373 16.4934C7.18541 16.4366 7.13844 16.3581 7.12056 16.271L6.88431 14.5853C6.87104 14.4929 6.83522 14.4053 6.78002 14.3301C6.72482 14.255 6.65195 14.1946 6.5679 14.1545C6.30501 14.0273 6.05272 13.8791 5.81345 13.7114C5.73684 13.658 5.64818 13.6245 5.55544 13.614C5.46271 13.6035 5.36882 13.6162 5.28224 13.6512L3.70407 14.2881C3.62044 14.3201 3.52825 14.3214 3.44375 14.2918C3.35924 14.2623 3.28784 14.2038 3.24212 14.1267L1.73849 11.5182C1.69328 11.4402 1.67713 11.3487 1.6929 11.26C1.70867 11.1712 1.75535 11.091 1.82462 11.0335L3.16794 9.97597C3.24154 9.91739 3.29938 9.84131 3.33621 9.75464C3.37305 9.66797 3.38771 9.57344 3.37888 9.47965C3.36622 9.33265 3.35849 9.18601 3.35849 9.03902C3.35849 8.89202 3.36587 8.7475 3.37888 8.60368C3.38675 8.51045 3.37136 8.41672 3.33411 8.33094C3.29686 8.24516 3.23891 8.17002 3.16548 8.11229L1.82286 7.05478C1.75472 6.997 1.70902 6.91702 1.69379 6.82885C1.67855 6.74068 1.69475 6.64995 1.73954 6.57256L3.24318 3.96404C3.28884 3.88684 3.36022 3.82827 3.44473 3.79868C3.52924 3.76908 3.62146 3.77034 3.70513 3.80224L5.28365 4.43956C5.37069 4.47432 5.46498 4.48687 5.55806 4.47611C5.65114 4.46534 5.7401 4.43159 5.81697 4.37788C6.05787 4.21154 6.31102 4.06377 6.57423 3.93584C6.65698 3.89551 6.72856 3.83538 6.78263 3.76074C6.83671 3.68611 6.87163 3.59927 6.88431 3.5079L7.12091 1.81977C7.13645 1.73061 7.18239 1.64964 7.25087 1.59068C7.31936 1.53172 7.40614 1.49844 7.49638 1.49652H10.5036C10.5924 1.49806 10.678 1.52987 10.7463 1.5867C10.8146 1.64354 10.8616 1.72201 10.8795 1.80919L11.1157 3.49486C11.129 3.58724 11.1648 3.6749 11.22 3.75005C11.2752 3.8252 11.3481 3.88551 11.4321 3.92562C11.695 4.05285 11.9473 4.20103 12.1866 4.36871C12.2632 4.42216 12.3519 4.45565 12.4446 4.46617C12.5373 4.47669 12.6312 4.46392 12.7178 4.42899L14.296 3.79202C14.3796 3.76008 14.4718 3.75877 14.5563 3.7883C14.6408 3.81784 14.7122 3.87632 14.7579 3.95346L16.2615 6.56198C16.3067 6.63992 16.3229 6.73141 16.3071 6.82017C16.2914 6.90893 16.2447 6.98919 16.1754 7.04667L14.8321 8.10418C14.7582 8.16257 14.7 8.23856 14.6628 8.32525C14.6257 8.41193 14.6108 8.50655 14.6194 8.6005C14.631 8.74644 14.6387 8.89308 14.6387 9.04007Z" stroke="white" stroke-width="1.5" stroke-linecap="round" stroke-linejoin="round"/>
</g>
<defs>
<clipPath id="clip0_0_2255">
<rect width="18" height="18.0481" fill="white" transform="translate(0 0.0160217)"/>
</clipPath>
</defs>
</svg>
