<svg width="19" height="17" viewBox="0 0 19 17" fill="none" xmlns="http://www.w3.org/2000/svg">
<path d="M9.40795 16.9555C9.264 16.9555 9.14359 16.9074 9.04672 16.8112C8.94985 16.715 8.90175 16.595 8.90243 16.451C8.9031 16.3071 8.9512 16.187 9.04672 16.0908C9.14224 15.9946 9.26232 15.9465 9.40694 15.9465H15.5782C15.7464 15.9465 15.8917 15.8947 16.0141 15.7911C16.1372 15.6875 16.1988 15.5516 16.1988 15.3835V8.43323C16.1988 6.54297 15.5039 4.9645 14.1141 3.69783C12.7236 2.43048 11.0641 1.7968 9.13551 1.7968C7.20691 1.7968 5.54739 2.43048 4.15694 3.69783C2.76716 4.9645 2.07227 6.54297 2.07227 8.43323V13.657C2.07227 13.8003 2.02417 13.92 1.92798 14.0162C1.83178 14.1124 1.71171 14.1608 1.56775 14.1615C1.15539 14.1615 0.799876 14.0219 0.501202 13.7428C0.2032 13.4643 0.0541992 13.1192 0.0541992 12.7075V10.8055C0.0541992 10.5041 0.152075 10.2367 0.347828 10.0033C0.544254 9.76919 0.782722 9.57915 1.06323 9.43318L1.08039 8.19308C1.09855 7.14032 1.32726 6.16492 1.76653 5.26687C2.2058 4.36883 2.79238 3.5875 3.52629 2.92289C4.26019 2.25827 5.10913 1.7403 6.07309 1.36897C7.03706 0.997647 8.05786 0.811649 9.13551 0.810976C10.2132 0.810303 11.2333 0.995966 12.1959 1.36796C13.1585 1.73996 14.0038 2.25726 14.7316 2.91986C15.4595 3.58246 16.043 4.36278 16.4823 5.26082C16.9216 6.15886 17.1577 7.13426 17.1906 8.18702L17.2078 9.40089C17.4755 9.52668 17.7106 9.69586 17.9131 9.90843C18.1156 10.1203 18.2168 10.3749 18.2168 10.6723V12.8578C18.2168 13.1552 18.1156 13.4098 17.9131 13.6217C17.7106 13.8336 17.4755 14.0024 17.2078 14.1282V15.3835C17.2078 15.8221 17.049 16.1937 16.7315 16.4984C16.414 16.8032 16.0296 16.9555 15.5782 16.9555H9.40795ZM6.49689 10.4352C6.28835 10.4352 6.10673 10.3645 5.95201 10.2233C5.79729 10.082 5.71993 9.90709 5.71993 9.69856C5.71993 9.49002 5.79729 9.31176 5.95201 9.16377C6.10673 9.01578 6.28835 8.94178 6.49689 8.94178C6.70542 8.94178 6.88671 9.01578 7.04076 9.16377C7.1948 9.31176 7.27216 9.49002 7.27284 9.69856C7.27351 9.90709 7.19615 10.082 7.04076 10.2233C6.88537 10.3645 6.70374 10.4352 6.49588 10.4352M11.7751 10.4352C11.5666 10.4352 11.385 10.3645 11.2303 10.2233C11.0756 10.082 10.9982 9.90709 10.9982 9.69856C10.9982 9.49002 11.0756 9.31176 11.2303 9.16377C11.385 9.01578 11.5666 8.94178 11.7751 8.94178C11.9837 8.94178 12.165 9.01578 12.319 9.16377C12.4731 9.31176 12.5504 9.49002 12.5511 9.69856C12.5518 9.90709 12.4744 10.082 12.319 10.2233C12.1636 10.3645 11.982 10.4352 11.7741 10.4352M3.80579 8.8328C3.71431 7.32194 4.201 6.03408 5.26586 4.96921C6.33006 3.90434 7.6371 3.37191 9.18697 3.37191C10.4893 3.37191 11.6436 3.76308 12.65 4.54541C13.6563 5.32775 14.2705 6.35529 14.4925 7.62802C13.1558 7.6112 11.9154 7.27014 10.7712 6.60485C9.62691 5.93956 8.74905 5.01462 8.13758 3.83001C7.89406 4.99444 7.38786 6.01491 6.61898 6.89142C5.84942 7.76794 4.91169 8.41506 3.80579 8.8328Z" fill="white"/>
</svg>