<svg width="16" height="16" viewBox="0 0 16 16" fill="none" xmlns="http://www.w3.org/2000/svg">
<path d="M14.1241 3.19756C13.9855 3.20169 13.854 3.2596 13.7574 3.35902L5.60118 11.5153L2.24493 8.15902C2.19578 8.10783 2.13692 8.06697 2.07178 8.03882C2.00665 8.01067 1.93655 7.99579 1.8656 7.99507C1.79464 7.99435 1.72425 8.00779 1.65856 8.03461C1.59287 8.06143 1.53318 8.10109 1.48301 8.15127C1.43283 8.20144 1.39317 8.26113 1.36635 8.32682C1.33953 8.39252 1.32609 8.4629 1.32681 8.53386C1.32753 8.60481 1.3424 8.67491 1.37056 8.74004C1.39871 8.80518 1.43957 8.86404 1.49076 8.91319L5.22409 12.6465C5.32412 12.7465 5.45975 12.8027 5.60118 12.8027C5.7426 12.8027 5.87824 12.7465 5.97826 12.6465L14.5116 4.11319C14.5887 4.03827 14.6413 3.94183 14.6626 3.83648C14.6839 3.73114 14.6729 3.62181 14.631 3.52283C14.5891 3.42385 14.5183 3.33984 14.4279 3.2818C14.3374 3.22375 14.2315 3.19439 14.1241 3.19756Z" fill="#07B464"/>
</svg>
